<?xml version="1.0" standalone="no"?><!DOCTYPE svg PUBLIC "-//W3C//DTD SVG 1.1//EN" "http://www.w3.org/Graphics/SVG/1.1/DTD/svg11.dtd"><svg t="1614218521920" class="icon" viewBox="0 0 1024 1024" version="1.1" xmlns="http://www.w3.org/2000/svg" p-id="2111" xmlns:xlink="http://www.w3.org/1999/xlink" width="200" height="200"><defs><style type="text/css"></style></defs><path d="M0 512a512 512 0 1 0 1024 0A512 512 0 1 0 0 512z" fill="#F7931A" p-id="2112"></path><path d="M742.044 448.646c10.017-67.072-41.027-103.135-110.86-127.199l22.64-90.869-55.318-13.802-22.039 88.487a2313.795 2313.795 0 0 0-44.32-10.418l22.215-89.043L499.066 192l-22.661 90.824a1850.368 1850.368 0 0 1-35.328-8.28l0.067-0.29-76.266-19.055-14.715 59.08s41.027 9.416 40.16 9.995c22.416 5.588 26.445 20.413 25.777 32.167l-25.822 103.513c1.558 0.4 3.561 0.957 5.787 1.848l-5.854-1.447-36.174 145.007c-2.738 6.812-9.706 17.007-25.355 13.134 0.556 0.801-40.203-10.017-40.203-10.017l-27.47 63.31L333 689.73c13.38 3.339 26.49 6.856 39.424 10.173l-22.884 91.915 55.252 13.78 22.661-90.936a2103.652 2103.652 0 0 0 44.077 11.442l-22.573 90.513 55.296 13.78 22.884-91.738c94.32 17.853 165.243 10.64 195.117-74.663 24.042-68.675-1.202-108.299-50.822-134.144 36.13-8.325 63.355-32.1 70.612-81.207zM615.669 625.842c-17.096 68.697-132.742 31.566-170.229 22.261l30.364-121.767c37.487 9.35 157.74 27.893 139.865 99.506z m17.118-178.198c-15.604 62.486-111.86 30.742-143.092 22.973l27.536-110.436c31.232 7.791 131.785 22.305 115.534 87.485z" fill="#FFFFFF" p-id="2113"></path></svg>