<?xml version="1.0" standalone="no"?><!DOCTYPE svg PUBLIC "-//W3C//DTD SVG 1.1//EN" "http://www.w3.org/Graphics/SVG/1.1/DTD/svg11.dtd"><svg t="1614225297905" class="icon" viewBox="0 0 1024 1024" version="1.1" xmlns="http://www.w3.org/2000/svg" p-id="3653" xmlns:xlink="http://www.w3.org/1999/xlink" width="200" height="200"><defs><style type="text/css"></style></defs><path d="M895.69609809 312.95650625c0 325.95156463-214.11265306 560.66612245-529.02748299 570.96707483-133.17659864 10.30095238-224.41360545-30.16707483-306.08544218-91.2370068 91.2370068 10.30095238 214.11265306-19.86612245 274.44680272-81.67183674-91.2370068 0-142.74176871-51.5047619-172.90884354-121.40408163h81.67183674C162.1211321 558.70779877 100.31541781 497.6378668 100.31541781 396.09990762c19.86612245 10.30095238 40.46802722 19.86612245 81.67183674 19.86612244-71.37088436-40.46802722-111.83891156-172.90884354-61.06993197-254.58068027 91.2370068 101.53795918 203.07591836 193.5107483 387.75727891 203.07591836-51.5047619-203.07591836 214.11265306-306.08544217 325.95156463-172.90884353 51.5047619-10.30095238 81.67183674-30.16707483 121.40408163-51.5047619-10.30095238 51.5047619-40.46802722 81.67183674-81.67183674 101.53795918 40.46802722 0 71.37088436-10.30095238 101.53795918-30.16707483-9.56517007 40.46802722-50.03319728 81.67183674-80.2002721 101.53795918z" fill="#8e8e8e" p-id="3654"></path></svg>